<svg width="169.3" height="24.358" version="1.1" xmlns="http://www.w3.org/2000/svg">
 <path d="m159.63 14.063v-13.863h2.101v12.397h7.572v1.466zm-16.855-13.863h9.449v1.476h-7.348v4.484h6.377v1.476h-6.377v4.961h7.465v1.466h-9.566zm-12.131 13.863h-2.101v-12.387h-5.054v-1.476h12.274v1.476h-5.119zm-11.71 4.886h3.634v0.567h-2.826v1.725h2.452v0.568h-2.452v1.908h2.871v0.564h-3.679zm-7.918-4.686c-1.812 0-3.286-0.558-4.42-1.676-1.134-1.117-1.701-2.523-1.701-4.218v-2.466c0-1.688 0.567-3.094 1.701-4.218 1.134-1.123 2.608-1.685 4.42-1.685 1.877 0 3.404 0.56 4.581 1.681 1.176 1.12 1.764 2.528 1.764 4.222v2.466c0 1.695-0.588 3.101-1.764 4.218-1.177 1.118-2.704 1.676-4.581 1.676zm4.245-8.379c0-1.269-0.384-2.31-1.152-3.123-0.768-0.812-1.799-1.219-3.093-1.219-1.222 0-2.198 0.407-2.927 1.219-0.729 0.813-1.093 1.854-1.093 3.123v2.485c0 1.283 0.364 2.33 1.093 3.142 0.729 0.813 1.705 1.219 2.927 1.219 1.301 0 2.334-0.404 3.098-1.214 0.764-0.809 1.147-1.858 1.147-3.147zm-8.965 13.634c0.453 0.431 0.679 0.972 0.679 1.624v0.949c0 0.652-0.226 1.192-0.679 1.622-0.452 0.43-1.039 0.645-1.761 0.645-0.697 0-1.264-0.215-1.7-0.645-0.437-0.43-0.655-0.97-0.655-1.622v-0.949c0-0.649 0.218-1.19 0.655-1.622 0.436-0.432 1.003-0.648 1.7-0.648 0.722 0 1.309 0.215 1.761 0.646zm-1.761-0.053c-0.471 0-0.846 0.156-1.126 0.469-0.28 0.312-0.42 0.713-0.42 1.201v0.956c0 0.493 0.14 0.896 0.42 1.208 0.28 0.313 0.655 0.469 1.126 0.469 0.5 0 0.897-0.156 1.191-0.467s0.441-0.715 0.441-1.21v-0.956c0-0.488-0.148-0.889-0.443-1.201-0.295-0.313-0.692-0.469-1.189-0.469zm-7.263 2.461h-2.9v2.355h-0.808v-5.332h0.808v2.409h2.9v-2.409h0.808v5.332h-0.808zm-2.3-13.985h-7.54v6.122h-2.101v-13.863h2.101v6.265h7.54v-6.265h2.1v13.863h-2.1zm-12.354 16.34h-0.803v-1.93l-2.063-3.402h0.922l1.559 2.71 1.558-2.71h0.923l-2.096 3.457zm-7.144-0.367c-0.03-0.161-0.045-0.327-0.045-0.498v-0.487c0-0.288-0.094-0.52-0.283-0.695-0.188-0.176-0.441-0.264-0.759-0.264h-1.382v2.311h-0.808v-5.329h2.043c0.653 0 1.152 0.13 1.497 0.388 0.344 0.259 0.517 0.635 0.517 1.128 0 0.274-0.08 0.512-0.24 0.714-0.16 0.203-0.393 0.364-0.7 0.484 0.329 0.095 0.564 0.249 0.708 0.463 0.143 0.214 0.215 0.478 0.215 0.793v0.502c0 0.166 0.021 0.315 0.062 0.446 0.041 0.132 0.112 0.24 0.213 0.323v0.088h-0.833c-0.106-0.083-0.175-0.205-0.205-0.367zm-0.028-3.453c0-0.3-0.098-0.533-0.294-0.698-0.195-0.164-0.499-0.247-0.912-0.247h-1.235v1.886h1.153c0.456 0 0.785-0.077 0.986-0.232s0.302-0.392 0.302-0.709zm-9.757 3.897c-0.648 0-1.179-0.166-1.592-0.497-0.412-0.33-0.619-0.788-0.619-1.371v-3.541h0.808v3.541c0 0.408 0.131 0.727 0.392 0.957 0.261 0.231 0.598 0.347 1.011 0.347 0.437 0 0.794-0.116 1.068-0.347 0.275-0.23 0.413-0.549 0.413-0.957v-3.541h0.808v3.541c0 0.586-0.214 1.044-0.64 1.373-0.427 0.33-0.976 0.495-1.649 0.495zm-4.769-10.095c-1.813 0-3.286-0.558-4.42-1.676-1.134-1.117-1.701-2.523-1.701-4.218v-2.466c0-1.688 0.567-3.094 1.701-4.218 1.134-1.123 2.607-1.685 4.42-1.685 1.877 0 3.404 0.56 4.58 1.681 1.177 1.12 1.765 2.528 1.765 4.222v2.466c0 1.695-0.588 3.101-1.765 4.218-1.176 1.118-2.703 1.676-4.58 1.676zm4.244-8.379c0-1.269-0.384-2.31-1.151-3.123-0.768-0.812-1.799-1.219-3.093-1.219-1.223 0-2.199 0.407-2.927 1.219-0.729 0.813-1.093 1.854-1.093 3.123v2.485c0 1.283 0.364 2.33 1.093 3.142 0.728 0.813 1.704 1.219 2.927 1.219 1.301 0 2.334-0.404 3.098-1.214 0.764-0.809 1.146-1.858 1.146-3.147zm-16.351 18.474c-0.648 0-1.179-0.166-1.592-0.497-0.413-0.33-0.619-0.788-0.619-1.371v-3.541h0.808v3.541c0 0.408 0.13 0.727 0.392 0.957 0.261 0.231 0.598 0.347 1.011 0.347 0.437 0 0.793-0.116 1.068-0.347 0.275-0.23 0.412-0.549 0.412-0.957v-3.541h0.808v3.541c0 0.586-0.213 1.044-0.64 1.373-0.426 0.33-0.976 0.495-1.648 0.495zm-7.318-10.095c-1.792 0-3.274-0.53-4.447-1.59s-1.76-2.431-1.76-4.113v-2.857c0-1.682 0.566-3.053 1.696-4.113s2.588-1.59 4.372-1.59c1.728 0 3.093 0.411 4.095 1.233 1.003 0.822 1.489 1.868 1.461 3.137l-0.021 0.058h-2.016c0-0.845-0.305-1.548-0.917-2.109-0.611-0.562-1.479-0.843-2.602-0.843-1.187 0-2.143 0.397-2.868 1.19-0.726 0.794-1.088 1.8-1.088 3.018v2.876c0 1.231 0.384 2.245 1.152 3.042 0.767 0.797 1.748 1.195 2.943 1.195 0.917 0 1.644-0.106 2.181-0.319 0.536-0.213 0.936-0.465 1.199-0.757v-3.123h-3.519v-1.467h5.62v5.066c-0.37 0.514-1.011 0.987-1.925 1.419-0.913 0.431-2.099 0.647-3.556 0.647zm-19.863 0c-1.813 0-3.286-0.558-4.42-1.676-1.134-1.117-1.701-2.523-1.701-4.218v-2.466c0-1.688 0.567-3.094 1.701-4.218 1.134-1.123 2.607-1.685 4.42-1.685 1.877 0 3.404 0.56 4.581 1.681 1.176 1.12 1.765 2.528 1.765 4.222v2.466c0 1.695-0.589 3.101-1.765 4.218-1.177 1.118-2.704 1.676-4.581 1.676zm4.245-8.379c0-1.269-0.384-2.31-1.152-3.123-0.768-0.812-1.799-1.219-3.093-1.219-1.222 0-2.198 0.407-2.927 1.219-0.729 0.813-1.093 1.854-1.093 3.123v2.485c0 1.283 0.364 2.33 1.093 3.142 0.729 0.813 1.705 1.219 2.927 1.219 1.301 0 2.334-0.404 3.098-1.214 0.764-0.809 1.147-1.858 1.147-3.147zm-25.877-5.684h2.1v12.397h7.572v1.466h-9.672zm40.167 23.517h2.912v0.564h-3.72v-5.332h0.808zm14.768-4.768h0.968l1.387 2.08 1.394-2.08h0.976l-1.895 2.644 1.936 2.688h-0.963l-1.432-2.117-1.435 2.117h-0.977l1.936-2.688zm60.21 0.567h-1.969v4.765h-0.808v-4.765h-1.944v-0.567h4.721zm12.171 4.201h2.913v0.564h-3.72v-5.332h0.807z" fill="#fff" fill-rule="evenodd"/>
</svg>
